<?xml version="1.0" encoding="utf-8"?>
<!-- Generator: Adobe Illustrator 25.2.3, SVG Export Plug-In . SVG Version: 6.00 Build 0)  -->
<svg version="1.1" id="Layer_1" xmlns="http://www.w3.org/2000/svg" xmlns:xlink="http://www.w3.org/1999/xlink" x="0px" y="0px"
	 viewBox="0 0 500 500" style="enable-background:new 0 0 500 500;" xml:space="preserve">
<style type="text/css">
	.st0{fill:#F7991C;}
	.st1{fill:#0D1A31;}
</style>
<path class="st0" d="M442.96,59.98v101.88L417.38,59.98H357.4v44.13h-68.55v27.08c20.25-9.35,36.9-10.27,49.59-2.86
	c12.57,7.4,18.95,21.3,18.95,41.29v65.26c0,8.55-3.32,15.94-9.87,21.97c-6.38,5.86-14.13,8.83-23.03,8.83h78.46V164.15l25.71,101.53
	h61.12V59.98H442.96z"/>
<path class="st0" d="M242.03,234.89v-38.4h46.82v25.07h21.72v-51.93c0-5.31-1.08-7.02-1.55-7.51c-0.22-0.23-1.65-1.42-7.5-1.42
	c-5.71,0-8.58,1.03-9.99,1.91c-0.55,0.38-2.69,1.84-2.69,7.02v11.46h-46.82V59.98H10.21v205.71h264.6c-8.82,0-16.53-2.97-22.9-8.83
	C245.35,250.83,242.03,243.44,242.03,234.89z"/>
<g>
	<path class="st1" d="M24.8,344.68h24.17v13.51H10.29v-73.03h38.67v13.51H24.8v16.23h20.11v13.55H24.8V344.68z"/>
	<path class="st1" d="M70.5,358.19H55.78l11.01-36.51l-11.01-36.52H70.5c2.01,6.68,4.57,16.59,7.68,29.74
		c3.11-13.15,5.67-23.06,7.69-29.74h14.76l-11.01,36.52l11.01,36.51H85.86c-2.05-6.7-4.61-16.62-7.69-29.74
		C75.07,341.57,72.51,351.49,70.5,358.19z"/>
	<path class="st1" d="M138.35,298.67h-13.73v46.01h13.73V333.5h14.5v14.72c0,2.76-1.07,5.12-3.2,7.07
		c-2.11,1.93-4.61,2.89-7.51,2.89h-21.32c-2.91,0-5.41-0.96-7.52-2.89c-2.13-1.95-3.19-4.31-3.19-7.07v-53.09
		c0-2.76,1.06-5.12,3.19-7.08c2.11-1.93,4.61-2.89,7.52-2.89h21.32c2.9,0,5.4,0.96,7.51,2.89c2.13,1.95,3.2,4.31,3.2,7.08v14.67
		h-14.5V298.67z"/>
	<path class="st1" d="M178.35,343.38l-2.94,14.8h-14.67l14.16-73.03h19.29l14.11,73.03h-14.72l-2.85-14.8H178.35z M180.98,329.87
		h7.08l-3.54-31.12L180.98,329.87z"/>
	<path class="st1" d="M241.36,285.16h14.72l-14.11,73.03h-19.29l-14.16-73.03h14.67c2.65,13.41,5.68,33.12,9.11,59.13
		C235.75,318.25,238.77,298.54,241.36,285.16z"/>
	<path class="st1" d="M273.9,343.38l-2.94,14.8h-14.67l14.16-73.03h19.29l14.11,73.03h-14.72l-2.85-14.8H273.9z M276.53,329.87h7.08
		l-3.54-31.12L276.53,329.87z"/>
	<path class="st1" d="M319.56,298.67h-14.16v-13.51h42.73v13.51h-14.11v59.52h-14.46V298.67z"/>
	<path class="st1" d="M356.41,358.19v-73.03h14.5v73.03H356.41z"/>
	<path class="st1" d="M400.52,311.15v47.04h-14.5v-73.03h20.11L418,332.42v-47.26h14.5v73.03h-20.07L400.52,311.15z"/>
	<path class="st1" d="M475.14,332.16h-6.86v-13.51h21.36v29.57c0,2.76-1.07,5.12-3.2,7.07c-2.11,1.93-4.61,2.89-7.51,2.89h-21.32
		c-2.91,0-5.41-0.96-7.52-2.89c-2.13-1.95-3.19-4.31-3.19-7.07v-53.09c0-2.76,1.06-5.12,3.19-7.08c2.11-1.93,4.61-2.89,7.52-2.89
		h21.32c2.9,0,5.4,0.96,7.51,2.89c2.13,1.95,3.2,4.31,3.2,7.08v14.67h-14.5v-11.14h-13.73v46.01h13.73V332.16z"/>
	<path class="st1" d="M60.71,427.92h-2.41c-1.96,0-3.33,0.32-4.1,0.95c-0.84,0.69-1.25,1.94-1.25,3.75v8.68
		c0,2.76-1.07,5.12-3.2,7.07c-2.11,1.93-4.61,2.89-7.51,2.89H20.92c-2.91,0-5.41-0.96-7.51-2.89c-2.13-1.95-3.2-4.31-3.2-7.07
		v-17.27c0-4.74,1.54-8.7,4.62-11.87c-1.87-2.47-2.8-5.47-2.8-8.98v-14.97c0-2.76,1.07-5.12,3.2-7.08c2.1-1.93,4.6-2.89,7.51-2.89
		h19.51c2.9,0,5.4,0.96,7.51,2.89c2.13,1.95,3.2,4.31,3.2,7.08v12.86c0,5.58-2.13,10.07-6.39,13.47c-4,3.2-8.99,4.79-14.97,4.79
		c-4.58,0-6.86,1.57-6.86,4.7v13.73h13.72v-5.14c0-12.11,6.62-18.2,19.86-18.26h2.41V427.92z M27.04,406.13
		c1.44-0.23,2.95-0.35,4.53-0.35c4.57,0,6.86-1.57,6.86-4.7v-9.32H26.53v12C26.61,404.61,26.78,405.4,27.04,406.13z"/>
	<path class="st1" d="M98.3,391.75H84.14v-13.51h42.73v13.51h-14.11v59.52H98.3V391.75z"/>
	<path class="st1" d="M149.66,425.25v26.02h-14.5v-73.03h32.02c2.91,0,5.41,0.96,7.52,2.89c2.13,1.95,3.19,4.31,3.19,7.08v18.82
		c0,4.77-1.86,8.59-5.57,11.44c3.71,2.85,5.57,6.69,5.57,11.53v21.28h-14.5v-21.28c0-1.33-0.52-2.46-1.55-3.41
		c-1.04-0.89-2.25-1.34-3.63-1.34H149.66z M158.2,411.74c1.38,0,2.59-0.46,3.63-1.38c1.03-0.89,1.55-2,1.55-3.32v-15.28h-13.73
		v19.98H158.2z"/>
	<path class="st1" d="M205.81,437.76h13.72v-59.52h14.5v63.06c0,2.76-1.07,5.12-3.2,7.07c-2.1,1.93-4.6,2.89-7.51,2.89h-21.32
		c-2.91,0-5.41-0.96-7.51-2.89c-2.13-1.95-3.2-4.31-3.2-7.07v-63.06h14.5V437.76z"/>
	<path class="st1" d="M276.5,391.75h-13.73v46.01h13.73v-11.18h14.5v14.72c0,2.76-1.07,5.12-3.2,7.07
		c-2.11,1.93-4.61,2.89-7.51,2.89h-21.32c-2.91,0-5.41-0.96-7.52-2.89c-2.13-1.95-3.19-4.31-3.19-7.07v-53.09
		c0-2.76,1.06-5.12,3.19-7.08c2.11-1.93,4.61-2.89,7.52-2.89h21.32c2.9,0,5.4,0.96,7.51,2.89c2.13,1.95,3.2,4.31,3.2,7.08v14.67
		h-14.5V391.75z"/>
	<path class="st1" d="M317.54,421.53v29.74h-14.5v-73.03h14.5v29.74h5.57l8.97-29.74h14.72l-10.96,36.52l10.96,36.51h-14.72
		l-8.97-29.74H317.54z"/>
	<path class="st1" d="M356.55,451.27v-73.03h14.5v73.03H356.55z"/>
	<path class="st1" d="M400.66,404.23v47.04h-14.5v-73.03h20.11l11.87,47.26v-47.26h14.5v73.03h-20.07L400.66,404.23z"/>
	<path class="st1" d="M475.28,425.25h-6.86v-13.51h21.36v29.57c0,2.76-1.07,5.12-3.2,7.07c-2.11,1.93-4.61,2.89-7.51,2.89h-21.32
		c-2.91,0-5.41-0.96-7.52-2.89c-2.13-1.95-3.19-4.31-3.19-7.07v-53.09c0-2.76,1.06-5.12,3.19-7.08c2.11-1.93,4.61-2.89,7.52-2.89
		h21.32c2.9,0,5.4,0.96,7.51,2.89c2.13,1.95,3.2,4.31,3.2,7.08v14.67h-14.5v-11.14h-13.73v46.01h13.73V425.25z"/>
</g>
<path class="st1" d="M267.46,222.74l-39.88-25.72l-3.96-3.28c0.83-0.8,2.25-3.03,2.25-8.98c0-8.39-5.11-10.1-5.11-10.1l-9.47-2.01
	v-0.97h12.3c0.65,0,1.17-0.54,1.15-1.19l-0.56-15.93c-0.02-0.5-0.36-0.94-0.85-1.07l-17.82-4.81l-1.18-18.27
	c-0.1-1.53-1.04-2.87-2.45-3.48l-13.67-5.93c-0.84-0.37-1.79-0.44-2.67-0.2l-15.41,4.09c-0.95,0.25-1.78,0.84-2.34,1.66
	c0,0-6.93-17.67-11.48-22.81c-4.55-5.14-7.75-5.52-7.75-5.52l-8.37-5.86l-25.87-19.42c-0.98-0.73-2.24-0.83-3.28-0.36L88.65,55.29
	l-2.48-6.06c0,0-2.09-0.89-3.58-0.3c-1.49,0.6-6.34,1.64-6.34,1.64l-3.43,2.23c-1.69,1.1-2.6,3.06-2.35,5.06l1.98,15.96l-2.26,7.65
	c-0.54,1.83-0.11,3.81,1.15,5.25L72.45,88l1.04,12.08h-1.04l0.34,7.01l1.6,1.19l2.68,26.54l-1.19,0.3l-0.15,2.61
	c0,0-3.28,1.86-3.13,3.8c0.15,1.94,4.47,1.94,4.47,1.94l2.41,4.36l-3.23,2.08l4.25,5.37c0,0,0.22,10.51,2.8,14.65
	c2.57,4.14,7.49,8.16,7.49,8.16c4.89,0.16,10.16,0.15,15.77-0.11c5.54-0.26,10.74-0.74,15.54-1.34c1.19-1.37,2.39-2.86,3.58-4.47
	c3.89-5.3,6.54-10.52,8.39-15.1c4.25-5.48,4.14-7.16,4.14-7.16l0.45-5.37l-1.79-0.22c0,0-1.01,1.57-2.12,2.46
	c-1.12,0.89-2.8,2.01-2.8,2.01v-3.35h-1.23c0,0-1.57,2.68-2.46,2.68c-0.89,0-9.84-1.34-9.84-1.34s-10.85-5.93-15.1-9.06l-2.94,0.89
	l-7.8-3.95l0.76-49.01l44.91,27.32l6.01,15.99c-0.44,0.54-0.59,1.29-0.32,1.98l10.25,26.57h-6.04c-0.93,0-1.68,0.75-1.68,1.68v7.9
	h-1.19v2.27l1.6,1.86l13.98,0.82v1.19l-28.44,1.23c0,0-6.99,2.33-7.1,10.37l-15.24,0.8l-28.25,37.91c-1.56-1.1-3.09-2.49-3.09-2.49
	l4.43-0.64c0,0-2.46-1.84-5.17-4.23c-2.71-2.39-3.69-7.72-3.69-7.72s-0.98,5.33-3.69,7.72c-2.71,2.39-5.17,4.23-5.17,4.23l4.43,0.64
	c0,0-3.32,3.03-5.17,3.68c1.85,0.74,2.83,1.01,2.83,1.01s-2.46,2.76-5.29,3.86c5.17,0.09,5.17,0.09,5.17,0.09s-2.07,2.3-4.92,4.37
	l-5.45-1.29c0.83-0.14,2.3-0.4,5.06-0.88c-5.4-2.33-10.23-7.75-10.23-7.75s0,0,5.97-0.11c-3.27-1.27-6.11-4.46-6.11-4.46
	s1.14-0.32,3.27-1.17c-2.13-0.74-5.97-4.25-5.97-4.25l5.11-0.74c0,0-2.84-2.12-5.97-4.88c-3.13-2.76-4.26-8.92-4.26-8.92
	s-1.14,6.16-4.26,8.92c-3.12,2.76-5.97,4.88-5.97,4.88l5.11,0.74c0,0-3.84,3.5-5.97,4.25c2.13,0.85,3.27,1.17,3.27,1.17
	s-2.84,3.18-6.11,4.46c5.97,0.11,5.97,0.11,5.97,0.11s-4.83,5.41-10.23,7.75c6.11,1.06,6.11,1.06,6.11,1.06l-4.26,2.97l5.26,0.42
	c0,0-3.54,1.85-6.83,3.41c-1.23-1.08-2.02-1.96-2.02-1.96s0,0,4-0.07c-2.19-0.86-4.1-2.99-4.1-2.99s0.76-0.21,2.19-0.78
	c-1.43-0.5-4-2.85-4-2.85l3.43-0.5c0,0-1.91-1.42-4-3.28c-2.1-1.85-2.86-5.98-2.86-5.98s-0.76,4.13-2.86,5.98
	c-2.1,1.85-4,3.28-4,3.28l3.43,0.5c0,0-2.57,2.35-4,2.85c1.43,0.57,2.19,0.78,2.19,0.78l-3.21,3.01c3.1,0.06,3.11,0.06,3.11,0.06
	s-1.27,1.43-3.11,2.88v24.99H323.5c0-0.01,0-0.03,0-0.04L267.46,222.74z M103.46,74.28l-1.42-2.01l-8.47-1.8l0.05-3.04l-2.6-6.34
	l18.14,13.99c-0.16,1.13,0.29,2.31,1.26,3.05l0.05,0.03L103.46,74.28z M156.48,152.48l-8.87-22.98c-0.27-0.69-0.89-1.15-1.58-1.24
	l-5.14-13.68l1.4,0.85l22.74,37.05H156.48z M182.74,159.51c-0.02,0.99-0.81,1.8-1.8,1.83l-10.53,0.38
	c-1.09,0.04-1.98-0.85-1.94-1.94l0.39-10.14l14.12-1.98L182.74,159.51z M183.01,145.76l-14.08,1.97l0.72-18.61
	c0.05-1.22,0.91-2.25,2.09-2.52l11.7-2.67L183.01,145.76z M186.8,126.47c0-1.67,1.7-2.81,3.25-2.18l7.49,3.07l0.3,19.61l-11.04-3.7
	V126.47z M195.23,158.01l-8.43-2.03v-10.82l11.07,3.71l0.11,6.94C196.84,156.72,196.36,157.1,195.23,158.01z M199.32,147.41
	l-0.67-19.38l2.05,0.7c0.83,0.28,1.39,1.05,1.4,1.92l0.28,17.58L199.32,147.41z"/>
</svg>
